<svg width="1200" height="1200" viewBox="0 0 1200 1200" fill="none" xmlns="http://www.w3.org/2000/svg">
<mask id="mask0_409_3640" style="mask-type:alpha" maskUnits="userSpaceOnUse" x="0" y="0" width="1197" height="1197">
<circle cx="598.033" cy="598.033" r="598.033" fill="#D9D9D9"/>
</mask>
<g mask="url(#mask0_409_3640)">
<path d="M925.883 1091.76C923.138 1093.73 920.001 1095.69 917.256 1097.65C914.118 1099.61 911.373 1101.57 908.236 1103.14C905.491 1104.71 903.138 1106.27 900.393 1107.84C900.001 1108.24 899.609 1108.24 899.216 1108.63C890.197 1114.12 880.785 1119.22 871.373 1123.92C868.628 1125.49 865.491 1127.06 862.746 1128.24C862.746 1128.24 862.354 1128.63 861.962 1128.63C858.824 1130.2 855.687 1131.76 852.55 1133.33C846.275 1136.47 839.609 1139.22 833.334 1141.96C830.197 1143.53 826.667 1144.71 823.53 1145.88C820.393 1147.06 816.864 1148.63 813.726 1149.8C810.589 1150.98 807.06 1152.55 803.922 1153.73C803.922 1153.73 803.922 1153.73 803.53 1153.73C800.393 1154.9 796.864 1156.08 793.726 1157.25C786.667 1159.61 779.216 1161.96 772.158 1164.31C769.805 1165.1 767.06 1165.88 764.707 1166.67C757.256 1169.02 749.805 1170.98 742.354 1172.55C739.609 1173.33 736.864 1173.73 733.726 1174.51C726.667 1176.08 719.216 1177.65 712.158 1179.22C710.589 1179.61 709.413 1179.61 707.844 1180C705.491 1180.39 702.746 1180.78 700.393 1181.18C696.864 1181.57 693.726 1182.35 690.197 1182.74C688.628 1183.14 687.06 1183.14 685.491 1183.53C683.53 1183.92 681.177 1184.31 678.824 1184.31C672.55 1185.1 665.883 1185.88 659.609 1186.67C657.648 1187.06 655.295 1187.06 653.334 1187.45H652.942C650.197 1187.84 647.452 1187.84 644.707 1188.24C641.962 1188.63 639.217 1188.63 636.471 1188.63C634.903 1188.63 632.942 1189.02 631.373 1189.02C628.236 1189.02 625.491 1189.41 622.746 1189.41C618.824 1189.41 615.295 1189.8 611.373 1189.8C607.452 1189.8 603.922 1189.8 600.001 1189.8C597.256 1189.8 594.511 1189.8 591.765 1189.8C426.275 1187.45 277.648 1117.25 171.373 1005.88C171.373 1005.88 171.373 1005.49 170.981 1005.49C159.216 994.902 169.413 938.431 216.864 902.745C276.471 857.647 419.217 829.412 419.217 829.412C419.217 829.412 474.511 820.392 679.609 863.137C799.609 888.235 890.981 924.706 941.962 1023.53C952.55 1043.92 963.138 1075.29 925.883 1091.76Z" fill="white"/>
<path d="M680.785 858.823C756.079 874.118 836.471 890.588 898.432 940.392C919.216 957.255 932.942 981.961 944.315 1005.88C949.805 1017.65 955.295 1029.8 959.609 1042.75C961.962 1051.37 965.491 1061.18 963.53 1071.37C963.138 1074.12 960.785 1077.65 958.824 1079.61C949.805 1088.63 940.001 1094.12 930.197 1101.18C872.55 1141.18 806.275 1169.41 737.648 1184.31C584.707 1217.65 419.216 1191.76 284.707 1111.37C240.001 1084.31 198.824 1051.37 163.53 1012.55C159.609 1007.84 159.609 1000 159.609 994.902C160.001 983.137 163.138 971.765 167.06 961.176C176.471 936.863 188.628 912.549 209.413 895.686C224.315 885.49 240.393 876.863 256.864 869.804C308.628 847.843 363.138 832.549 419.216 826.274C423.922 825.882 424.707 832.549 420.001 833.333C366.275 844.314 312.942 860.784 263.138 883.137C245.099 892.157 225.883 900 211.373 914.118C197.648 929.02 187.844 947.451 180.001 966.274C174.903 977.647 171.373 995.686 172.942 1004.71C197.648 1034.12 226.667 1060 258.04 1082.35C429.805 1202.35 690.589 1210.2 873.334 1110.2C889.805 1101.18 905.883 1090.98 921.177 1080.39C928.628 1075.29 936.471 1070.98 942.354 1065.1C942.746 1064.71 942.354 1065.1 942.354 1065.49C942.354 1065.88 941.962 1066.27 941.962 1066.27C942.354 1061.57 940.785 1055.29 938.824 1049.02C931.765 1026.27 920.393 1002.35 908.236 981.569C889.02 950.588 856.471 930.98 823.53 915.294C800.785 904.706 776.863 896.471 752.55 888.627C728.236 880.784 703.53 874.118 678.824 868.235C672.55 866.667 674.511 857.647 680.785 858.823Z" fill="black"/>
<path d="M979.606 1147.45C972.155 1089.41 939.214 991.764 919.214 965.489C897.253 936.862 888.234 927.842 814.9 903.136C810.979 883.528 796.469 834.117 779.214 813.332C752.94 773.724 681.175 764.705 659.606 769.411C659.606 769.411 543.528 728.626 409.802 728.626C367.449 738.038 318.43 757.254 291.763 797.646C273.724 824.313 294.116 832.94 285.096 857.254C282.744 863.528 227.842 894.901 205.489 913.724C195.293 921.96 183.92 942.744 176.077 969.803C160.391 1025.1 177.253 1101.57 157.645 1168.23C119.998 1296.86 43.5278 1335.29 43.5278 1335.29H1056.86C1056.08 1334.9 995.685 1269.8 979.606 1147.45Z" fill="white"/>
<path d="M973.725 1148.24C965.882 1096.86 950.196 1045.88 930.196 998.04C920.392 974.902 905.49 952.549 884.706 938.824C874.118 932.157 862.353 927.059 850.196 921.961C838.039 917.255 825.49 912.941 813.333 908.628C811.373 907.843 809.804 906.275 809.412 904.314C807.843 896.471 805.882 889.02 803.529 881.177C793.333 849.412 782.353 814.118 752.549 795.687C729.804 781.961 702.745 775.294 676.471 774.118C671.373 774.118 665.882 774.118 661.176 774.902H659.608C659.216 774.902 658.431 774.902 658.039 774.51C639.216 765.49 618.431 760 598.039 754.51C536.863 740.392 472.941 734.51 410.196 734.118C371.765 743.138 318.039 764.314 294.51 803.53C290.588 809.804 288.627 816.079 289.412 823.138C290.196 830.981 292.941 839.608 290.98 847.843C290.196 851.373 289.412 855.294 287.843 858.432C284.706 862.745 279.608 865.49 275.686 868.236C255.294 881.569 234.51 893.334 214.902 907.059C208.235 911.765 201.961 916.079 197.255 922.745C183.529 942.353 175.294 965.883 171.765 989.412C165.49 1037.26 171.765 1085.88 165.49 1133.73C158.431 1181.57 140 1227.84 114.118 1268.63C96.0784 1296.08 74.1176 1321.57 46.2745 1339.22L43.5294 1328.24H1056.86L1052.55 1338.04C1040.78 1324.71 1031.37 1310.2 1022.75 1294.9C996.078 1250.2 980.392 1199.61 973.725 1148.24ZM985.49 1146.67C989.804 1180 998.039 1212.94 1010.59 1244.31C1023.14 1275.29 1038.82 1305.49 1060.78 1330.98C1063.92 1334.51 1061.18 1341.18 1056.47 1340.78H43.1372C40 1340.78 37.2549 1338.04 37.2549 1334.9C37.2549 1332.55 38.4314 1330.59 40.3921 1329.8C46.6666 1326.27 52.9412 1321.18 58.8235 1316.08C110.196 1269.8 142.353 1201.18 152.941 1132.94C161.961 1069.02 145.098 1000 173.725 939.216C180.392 925.098 188.627 910.196 201.961 901.177C226.274 883.138 252.941 869.804 276.863 852.157C277.255 852.157 277.255 851.765 277.255 851.765C276.863 852.157 276.471 852.941 276.471 853.334C278.824 847.843 279.608 843.138 278.824 836.863C277.647 829.02 275.686 818.432 278.431 810.196C279.608 805.491 281.961 801.177 284.314 797.647C312.549 755.294 362.353 736.471 409.804 725.883C423.137 726.275 436.863 723.922 450.196 723.922C468.627 723.922 487.451 726.667 505.882 729.02C558.824 737.255 609.804 751.373 661.961 762.745L658.431 762.353C670.588 760 681.961 761.177 693.725 762.745C769.02 774.118 794.51 807.059 814.902 877.255C817.255 885.098 819.216 892.941 821.176 901.177L817.255 896.471C854.902 909.804 897.255 921.961 921.176 956.863C929.804 967.451 936.078 980 941.569 992.549C961.569 1042.75 977.255 1093.33 985.49 1146.67Z" fill="black"/>
<path d="M361.569 889.413C390.589 951.374 435.687 1003.92 489.413 1045.49C491.373 1047.06 489.413 1050.2 487.06 1049.02C439.217 1026.28 398.824 987.452 374.903 940.394C367.06 924.707 360.393 907.844 358.04 890.197C357.256 888.237 360.393 887.452 361.569 889.413Z" fill="black"/>
<path d="M820.785 902.354C821.962 967.844 795.295 1034.9 744.315 1077.26C743.138 1078.43 741.57 1078.04 740.393 1076.86C739.217 1075.69 739.609 1074.12 740.785 1072.94C752.158 1061.96 763.53 1050.59 772.158 1037.26C790.197 1011.37 801.178 980.785 806.276 949.805C808.629 934.511 810.197 918.04 809.021 902.746C808.629 895.295 820.393 894.511 820.785 902.354Z" fill="black"/>
<path d="M589.804 1058.04C580.784 1089.8 573.333 1124.31 577.647 1157.26C578.823 1164.71 567.451 1166.67 565.882 1158.82C563.922 1140.78 566.274 1123.14 569.412 1105.88C572.941 1088.63 577.255 1072.16 583.137 1055.69C584.706 1051.77 591.372 1053.73 589.804 1058.04Z" fill="black"/>
<path d="M714.51 1052.16C727.451 1080 736.471 1109.02 743.53 1138.43C744.314 1141.57 742.353 1144.71 739.216 1145.49C736.079 1146.27 732.941 1144.31 732.157 1141.18C728.235 1119.22 723.137 1097.26 716.079 1075.69C713.726 1068.63 711.373 1061.57 708.628 1054.51C707.059 1050.98 712.549 1048.24 714.51 1052.16Z" fill="black"/>
<path d="M293.333 855.686C307.843 934.902 363.529 1001.96 430.588 1044.71C453.333 1059.22 477.647 1071.76 502.745 1081.96C504.314 1082.75 505.098 1084.31 504.314 1085.88C503.922 1087.45 501.961 1088.24 500.784 1087.45C474.902 1078.04 449.804 1066.27 426.275 1052.16C378.431 1023.92 336.471 984.706 308.235 936.863C293.726 912.157 282.353 886.275 276.863 858.039C276.078 853.333 279.216 849.02 283.922 848.235C288.235 847.059 292.941 850.588 293.333 855.686Z" fill="black"/>
<path d="M566.273 1165.88C555.292 1164.71 547.449 1154.51 549.802 1143.53L554.116 1122.75C555.684 1114.51 563.528 1108.63 571.763 1109.8C579.998 1110.59 586.665 1117.65 586.665 1126.27V1147.45C587.057 1158.43 577.645 1167.06 566.273 1165.88Z" fill="black"/>
<path d="M747.059 1151.37C736.471 1155.29 725.098 1149.02 722.353 1138.04L717.255 1117.26C715.294 1109.02 719.608 1100.78 727.843 1097.65C735.686 1094.9 744.706 1098.43 748.235 1105.88L757.647 1125.1C762.353 1135.69 757.647 1147.84 747.059 1151.37Z" fill="black"/>
<path d="M928.235 1139.61C928.235 1139.61 950.196 1262.75 941.569 1334.9" stroke="black" stroke-width="5.1257" stroke-miterlimit="10" stroke-linecap="round" stroke-linejoin="round"/>
<path d="M416.077 841.569C410.587 825.883 408.234 809.805 409.41 793.334C409.41 791.765 410.587 790.981 412.156 790.981C413.332 790.981 414.508 792.157 414.508 793.334C415.685 808.236 419.999 823.53 427.058 836.471C430.587 844.314 418.822 849.412 416.077 841.569Z" fill="black"/>
<path d="M681.175 862.354C670.194 837.648 643.136 825.099 619.214 816.471C604.312 811.765 587.841 808.236 572.155 805.883C534.116 800.001 480.39 790.981 442.351 787.059C441.959 787.059 441.959 786.275 442.351 786.275C453.332 785.099 464.312 785.099 475.292 785.099C508.234 785.883 541.175 789.412 573.724 794.51C606.273 799.608 641.175 809.412 665.881 832.942C673.724 841.177 680.783 850.589 682.743 861.961C683.136 863.138 681.567 863.53 681.175 862.354Z" fill="black"/>
<path d="M717.648 963.138C709.413 1003.53 656.079 1027.84 566.275 991.373C472.942 953.726 432.55 863.922 422.354 837.255C477.648 733.726 439.217 661.961 439.217 661.961C566.667 650.981 678.04 800 678.04 800L695.295 873.726C696.864 880 700.001 885.491 704.707 889.412C712.942 903.922 722.746 937.255 717.648 963.138Z" fill="white"/>
<path d="M420.395 838.432C427.846 827.059 432.552 813.726 435.689 800.785C441.571 773.726 443.532 746.275 443.924 718.824V708.628C442.748 698.432 439.218 687.844 435.297 678.432C430.199 665.883 448.63 658.04 454.512 670.589C455.297 672.157 455.297 674.902 455.297 676.471C456.473 729.804 458.826 798.432 425.101 842.746C422.748 845.099 418.042 841.569 420.395 838.432Z" fill="black"/>
<path d="M682.354 799.216C688.237 802.746 690.197 807.452 690.982 812.158C693.335 821.569 692.55 831.766 694.903 841.569C696.864 850.981 702.746 860.001 704.315 869.805C706.276 880.001 712.158 901.569 714.511 912.158C715.295 914.511 713.727 917.256 710.982 917.648C709.413 918.04 708.237 917.648 707.06 916.864C701.962 912.55 699.609 908.236 696.472 902.746C691.374 893.334 687.845 884.707 684.707 874.118C681.962 864.707 683.139 854.511 680.786 844.707C678.825 835.295 673.335 826.275 671.374 816.471C670.197 811.765 669.805 806.667 673.335 800.785C675.688 798.432 679.609 797.648 682.354 799.216Z" fill="black"/>
<path d="M710.591 902.745C635.689 898.824 574.512 875.294 514.905 769.02C565.101 813.334 624.316 830.196 686.669 838.04L694.905 874.118C696.473 880.392 705.885 898.824 710.591 902.745Z" fill="black"/>
<path d="M707.455 888.236C720.788 913.334 728.632 944.706 720.396 972.549C714.122 992.157 696.083 1006.67 676.475 1012.16C630.985 1024.31 578.436 1005.1 538.043 983.53C488.239 955.687 451.377 909.02 427.847 858.04C426.279 854.118 431.769 850.981 434.122 854.902C442.357 871.373 451.769 887.451 462.357 901.961C472.945 916.863 485.102 930.589 498.828 942.745C538.828 978.824 592.945 1001.18 647.063 1001.18C702.749 999.608 723.926 970.196 710.985 916.079C709.024 907.451 705.886 898.432 701.573 890.981C699.22 887.843 705.102 884.314 707.455 888.236Z" fill="black"/>
<path d="M859.215 417.255C866.274 450.197 852.548 465.099 852.548 553.334C852.548 597.648 848.235 648.236 839.607 696.863C830.587 747.059 805.489 794.51 763.529 829.805C699.999 882.746 633.333 885.099 554.509 823.53C543.529 814.903 505.097 785.883 495.293 776.079C473.333 754.51 471.372 698.824 457.254 677.255C447.45 662.353 441.568 686.275 419.215 661.569C388.235 627.844 350.98 560.001 369.411 440.001C399.215 245.491 553.333 222.746 667.45 244.314C781.568 265.491 840.391 330.589 859.215 417.255Z" fill="white"/>
<path d="M438.04 695.687C424.315 673.334 405.099 654.51 392.55 631.373C354.511 561.177 346.667 475.687 367.06 398.824C410.589 234.118 570.589 205.883 715.687 250.589C794.118 274.902 851.766 334.118 867.844 415.687C873.726 445.098 861.177 473.334 859.217 501.961C857.256 519.216 856.471 536.471 856.864 553.726C858.824 606.275 857.256 659.608 841.569 710.197C825.491 760.785 799.217 810.981 755.687 843.53C673.726 904.706 576.864 860.001 513.334 795.295C511.373 793.334 514.118 790.197 516.471 791.765C558.04 821.569 602.354 849.804 653.334 855.295C742.354 865.491 804.315 782.353 830.589 707.059C841.962 674.51 847.844 640.393 849.02 606.275C850.197 571.373 847.452 536.471 848.628 501.569C849.02 492.942 849.413 483.922 850.197 475.295C851.373 461.569 854.903 438.824 852.158 425.491C843.922 384.706 825.883 345.491 796.864 315.295C729.02 245.098 601.177 225.098 510.981 257.647C405.099 296.471 377.256 402.746 371.373 504.706C367.452 565.883 385.491 625.491 431.765 667.451L450.197 686.667C457.648 694.51 444.315 705.098 438.04 695.687Z" fill="black"/>
<path d="M484.315 570.981C484.315 570.981 472.158 512.157 414.903 519.216C365.491 525.49 348.236 643.922 460.393 676.863" fill="white"/>
<path d="M455.297 625.491C446.277 620.393 440.002 611.766 439.61 601.177C440.002 593.334 441.179 584.315 439.218 576.471C438.042 569.021 430.198 567.06 424.316 567.452C418.042 568.628 414.12 576.472 412.944 582.746C412.944 583.138 412.551 584.315 412.551 584.707C412.159 586.668 409.022 586.668 408.238 584.707C403.14 569.413 414.512 552.55 430.983 554.511C454.12 556.079 457.257 580.393 452.944 598.824C450.591 606.668 453.728 613.726 458.042 620.393L458.826 621.57C460.787 623.922 457.649 627.06 455.297 625.491Z" fill="black"/>
<path d="M769.022 529.412C774.904 557.255 785.885 583.137 799.61 607.451C811.767 637.255 780.394 665.49 752.551 664.314C749.414 664.314 749.022 660 751.767 659.216C769.414 653.726 785.492 641.961 788.237 623.922C789.414 618.432 787.845 613.726 785.1 609.02C772.159 584.706 764.316 556.863 766.277 529.412C766.277 527.451 769.022 527.451 769.022 529.412Z" fill="black"/>
<path d="M482.354 571.373C473.334 548.236 453.726 526.275 427.452 526.667C425.099 526.275 421.177 527.059 418.824 527.059C412.158 527.451 406.667 529.804 401.569 534.51C376.471 559.608 380.785 603.922 401.177 631.765C408.236 641.569 417.256 650.197 427.452 657.255C437.648 664.314 449.02 669.804 461.177 674.51C463.922 675.295 462.746 679.608 460.001 679.216C433.726 673.726 408.628 660.785 391.373 639.216C364.707 607.059 359.216 553.334 390.981 521.961C398.04 515.687 407.844 510.981 417.648 510.981C420.785 510.981 425.491 510.197 428.628 510.981C445.099 511.765 460.785 520 470.981 532.942C480.001 543.922 485.099 557.255 486.667 570.589C486.667 572.942 483.138 573.726 482.354 571.373Z" fill="black"/>
<path d="M739.216 703.529C714.118 727.451 666.667 708.235 654.118 679.216C652.549 675.686 656.471 672.549 659.608 674.117C666.275 677.647 672.157 681.176 678.432 683.921C696.471 692.157 715.294 698.823 735.294 696.863C739.216 696.078 741.961 700.784 739.216 703.529Z" fill="black"/>
<path d="M622.746 569.412C613.334 569.02 606.275 561.177 607.06 551.765L607.452 540.785C607.844 531.373 615.687 524.314 625.099 525.099C634.511 525.491 641.57 533.334 640.785 542.746L640.393 553.726C640.001 562.746 632.158 569.804 622.746 569.412Z" fill="black"/>
<path d="M787.843 575.295C779.215 574.903 772.549 567.452 772.941 558.824L773.333 548.628C773.725 540.001 781.176 533.334 789.803 533.726C798.431 534.119 805.098 541.57 804.705 550.197L804.313 560.393C803.921 569.02 796.47 575.687 787.843 575.295Z" fill="black"/>
<path d="M658.04 548.236C645.099 539.608 630.981 533.726 615.295 536.863C610.197 537.647 605.099 539.216 601.962 542.746C600.785 544.314 598.04 543.922 598.04 541.569C598.432 533.726 605.099 528.628 611.373 525.491C623.53 519.216 640.393 520.393 651.373 528.628C655.295 530.981 668.628 545.491 661.569 548.628C660.001 549.412 659.217 549.02 658.04 548.236Z" fill="black"/>
<path d="M770.197 550.197C770.197 533.726 790.589 527.844 803.138 533.726C810.197 536.863 815.295 543.138 817.256 550.589C818.04 552.942 814.511 554.903 812.942 552.942C806.275 545.099 794.903 541.177 785.883 545.883C783.138 547.452 782.746 548.628 781.962 550.197C781.962 558.04 770.589 557.648 770.197 550.197Z" fill="black"/>
<path d="M676.864 483.53C685.099 486.275 693.334 478.824 691.766 469.804C690.981 465.098 689.02 460.392 685.099 456.863C673.334 446.275 624.707 436.863 595.295 450.589C569.413 463.138 639.217 470.981 676.864 483.53Z" fill="black"/>
<path d="M794.12 489.804C787.453 492.157 780.394 485.098 781.571 476.863C781.963 472.549 783.532 468.236 786.669 465.098C796.081 455.687 828.237 448.236 848.63 462.745C866.277 474.902 824.708 478.432 794.12 489.804Z" fill="black"/>
<path d="M889.021 323.922C916.864 223.138 803.923 160 773.726 205.491C751.766 238.432 667.06 212.942 538.432 210.589C409.805 207.843 375.295 276.079 373.726 349.412C373.726 349.412 317.256 379.216 320.785 484.314C324.315 593.334 436.472 681.177 450.197 736.471C450.197 736.471 451.766 743.53 436.864 667.843C351.374 626.667 369.413 525.098 415.295 519.216C450.197 514.902 468.628 535.294 477.256 551.765C480.785 556.471 514.119 597.255 514.903 463.922C515.295 372.942 603.923 343.138 704.707 380C757.256 399.216 812.55 413.334 850.589 385.883C856.864 403.922 863.53 423.922 858.432 448.236C873.726 434.118 886.668 413.334 890.197 387.843C892.55 372.549 888.628 359.216 880.001 347.451C883.53 340.785 886.668 332.549 889.021 323.922Z" fill="black"/>
<path d="M1130.2 330.588C1368.24 789.02 949.804 1306.27 450.981 1180C227.059 1124.31 47.0589 930.196 9.80403 702.353C-32.5489 475.686 69.804 232.157 261.177 103.922C523.53 -76.4704 887.059 -16.4704 1074.9 241.569C1076.08 242.745 1075.69 244.706 1074.12 245.883C1072.94 247.059 1070.98 246.667 1069.8 245.098C1043.92 211.765 1014.51 181.569 982.353 154.51C929.412 109.412 867.451 74.1179 801.961 50.1963C468.628 -70.588 102.745 130.196 29.804 478.824C-52.5489 869.412 279.608 1229.02 675.686 1175.29C981.177 1136.86 1208.24 854.902 1183.14 548.235C1177.65 474.118 1158.04 400.785 1125.49 333.334C1124.71 332.157 1125.49 330.588 1126.67 329.804C1127.84 329.02 1129.41 329.412 1130.2 330.588Z" fill="black"/>
</g>
</svg>
